<svg xmlns="http://www.w3.org/2000/svg" width="256" height="256"><path fill-opacity=".016" d="M0 128.004v128.004l128.25-.254 128.25-.254.254-127.75L257.008 0H0v128.004m.485.496c0 70.4.119 99.053.265 63.672.146-35.38.146-92.98 0-128C.604 29.153.485 58.1.485 128.5" fill="#1976D2" fill-rule="evenodd"/><path fill-opacity=".091" d="M73 51.5V60H62v59.568L67.5 125l5.5 5.432V145.895l-5.25.303-5.25.302-.265 29.403-.266 29.402 25.222 25.348L112.413 256H256V116.465l-36.781-36.733L182.438 43H153l-.02 5.75-.02 5.75-5.565-5.75-5.564-5.75H113l-.02 5.75-.02 5.75-5.565-5.75-5.564-5.75H73v8.5" fill="#1976D2" fill-rule="evenodd"/><path fill-opacity=".491" d="M73.667 43.667c-.367.366-.667 4.191-.667 8.5V60H63v60h131V60h-11V43h-29v17h-10.919l-.291-8.25-.29-8.25h-29l-.29 8.25-.291 8.25H102V43H88.167c-7.609 0-14.134.3-14.5.667m.122 94.083l-.289 8.75-5.25.302-5.25.303V206h131v-60h-10.919l-.291-8.25-.29-8.25-14.25-.277-14.25-.278V146h-10.919l-.291-8.25-.29-8.25h-29l-.29 8.25-.291 8.25H102v-17H74.078l-.289 8.75" fill="#1976D2" fill-rule="evenodd"/><path fill-opacity=".19" d="M73.79 52.25l-.29 8.25-5.25.302-5.25.303V120h130V60h-11V44h-28v16h-12V44h-28v16h-12V44H74.081l-.291 8.25m54.036 85.748l.326 8.002H142v-16l-7.25-.002-7.25-.003.326 8.003M154 138v8h28v-16h-28v8" fill="#1976D2" fill-rule="evenodd"/></svg>