<svg id="Capa_1" enable-background="new 0 0 512 512" height="512" viewBox="0 0 512 512" width="512" xmlns="http://www.w3.org/2000/svg"><path d="m82.83 41.179v429.639c0 22.745 89.878 41.183 200.748 41.183s200.748-18.438 200.748-41.183v-429.639z" fill="#bebebe"/><path d="m451.369 41.179v429.639c0 21.606-81.109 39.324-184.27 41.044 5.435.091 10.929.139 16.478.139 110.87 0 200.748-18.438 200.748-41.183v-429.639z" fill="#aaa"/><path d="m484.326 63.824v-.002z" fill="#fbf0dc"/><path d="m82.83 41.179v22.646c0 22.744 89.878 41.182 200.748 41.182 110.869 0 200.745-18.438 200.748-41.181v-22.647z" fill="#aaa"/><path d="m82.83 63.822v.003z" fill="#fbf0dc"/><path d="m317.237 264.496h-1.127c-10.315 0-18.676-8.362-18.676-18.676v-10.728c0-10.315 8.362-18.676 18.676-18.676h1.127c10.315 0 18.676 8.362 18.676 18.676v10.728c0 10.314-8.361 18.676-18.676 18.676z" fill="#ffe046"/><path d="m53.406 277.151c-15.633-33.537-13.676-70.967 5.352-102.663l24.072-39.72v-29.815l-37.304 61.553c-21.411 35.666-23.701 79.469-6.126 117.174 9.752 20.921 24.88 38.357 43.429 50.858v-19.038c-12.272-10.164-22.324-23.121-29.423-38.349z" fill="#5a5a5a"/><path d="m146.322 356.439c11.807 1.879 23.716 2.812 35.617 2.811 27.064-.001 54.061-4.829 79.533-14.34 36.673-13.692 69.36-36.778 94.528-66.76l104.57-124.573c2.743-3.269 2.318-8.142-.95-10.886-3.269-2.743-8.143-2.318-10.886.95l-104.571 124.575c-23.456 27.943-53.919 49.457-88.097 62.218s-71.288 16.476-107.317 10.744l-13.244-2.107c-19.949-3.174-37.919-11.352-52.675-23.572v19.038c14.88 10.029 31.96 16.885 50.247 19.795z" fill="#5a5a5a"/><ellipse cx="283.578" cy="41.182" fill="#f1d333" rx="200.748" ry="41.182"/><path d="m283.578 0c-5.486 0-10.918.047-16.293.136 103.249 1.701 184.455 19.427 184.455 41.046s-81.206 39.345-184.455 41.047c5.375.089 10.807.136 16.293.136 110.87 0 200.748-18.438 200.748-41.182 0-22.745-89.878-41.183-200.748-41.183z" fill="#ecc32e"/><path d="m424.112 451.798h-55.523c-3.545 0-6.419-2.874-6.419-6.419v-15.83c0-3.545 2.874-6.419 6.419-6.419h55.523c3.545 0 6.419 2.874 6.419 6.419v15.83c-.001 3.545-2.874 6.419-6.419 6.419z" fill="#f1d333"/><path d="m283.578 82.365c-24.1 0-47.206-.872-68.614-2.469v147.618c0 10.626 8.614 19.24 19.24 19.24 10.626 0 19.24-8.614 19.24-19.24v-58.865c0-10.626 8.614-19.24 19.24-19.24 10.626 0 19.24 8.614 19.24 19.24v4.282c0 10.626 8.614 19.24 19.24 19.24 10.626 0 19.24-8.614 19.24-19.24v-28.219c0-10.626 8.614-19.24 19.24-19.24 10.626 0 19.24 8.614 19.24 19.24v45.197c0 10.626 8.614 19.24 19.24 19.24 10.626 0 19.24-8.614 19.24-19.24v-33.318c0-10.626 8.614-19.24 19.24-19.24 10.626 0 19.24 8.614 19.24 19.24v16.34c0 10.626 8.614 19.24 19.24 19.24 10.626 0 19.24-8.614 19.24-19.24v-131.749c.002 22.745-89.876 41.183-200.746 41.183z" fill="#f1d333"/><g fill="#ecc32e"><path d="m484.326 41.183c-.001 8.351-12.131 16.12-32.957 22.611v122.618c3.491 3.551 8.344 5.758 13.717 5.758 10.626 0 19.239-8.613 19.24-19.239z"/><path d="m283.578 82.365c-24.1 0-47.206-.872-68.614-2.469v22.643c21.409 1.597 44.514 2.469 68.614 2.469 110.869 0 200.745-18.438 200.748-41.181v-22.644c-.002 22.744-89.879 41.182-200.748 41.182z"/></g></svg>